<?xml version="1.0" standalone="no"?>
<!DOCTYPE svg PUBLIC "-//W3C//DTD SVG 20010904//EN"
 "http://www.w3.org/TR/2001/REC-SVG-20010904/DTD/svg10.dtd">
<svg version="1.0" xmlns="http://www.w3.org/2000/svg"
 width="6308.000000pt" height="1592.000000pt" viewBox="0 0 6308.000000 1592.000000"
 preserveAspectRatio="xMidYMid meet">
<metadata>
Created by potrace 1.16, written by Peter Selinger 2001-2019
</metadata>
<g transform="translate(0.000000,1592.000000) scale(0.100000,-0.100000)"
fill="#000000" stroke="none">
<path d="M7068 13943 c0 -10 0 -25 0 -33 1 -8 6 -116 12 -240 11 -251 26 -358
75 -529 18 -64 43 -156 55 -205 28 -112 61 -191 117 -279 24 -38 41 -72 38
-78 -12 -19 162 -190 295 -291 123 -92 368 -210 505 -242 39 -9 96 -23 128
-32 32 -8 95 -18 140 -22 l82 -7 3 -1833 c2 -1453 5 -1834 15 -1837 6 -3 212
-6 457 -7 l446 -3 -4 94 -4 94 126 -8 c112 -6 126 -5 126 9 0 14 -17 16 -125
16 l-125 0 0 1738 0 1738 231 23 c317 31 649 44 929 37 235 -7 317 -14 442
-41 37 -8 82 -17 100 -19 18 -3 71 -19 118 -36 47 -18 114 -42 150 -55 145
-52 373 -189 499 -301 109 -97 221 -215 221 -232 0 -5 7 -12 15 -16 8 -3 15
-12 15 -21 0 -8 4 -15 8 -15 7 0 95 -154 97 -170 1 -3 16 -36 34 -75 18 -38
38 -90 46 -115 54 -174 65 -217 70 -272 4 -34 8 -65 10 -68 5 -8 20 -246 20
-320 0 -72 -14 -280 -19 -289 -3 -4 -7 -31 -10 -59 -4 -49 -37 -181 -56 -227
-5 -11 -14 -38 -21 -60 -6 -22 -27 -71 -45 -108 -19 -38 -33 -71 -32 -75 4
-18 -133 -265 -169 -307 -5 -5 -10 -14 -10 -18 -1 -5 -10 -19 -20 -31 -11 -12
-39 -49 -63 -81 -115 -156 -346 -374 -466 -441 -27 -15 -62 -36 -79 -47 -65
-44 -81 -54 -115 -67 -19 -7 -39 -17 -45 -21 -5 -4 -26 -12 -45 -17 -19 -6
-69 -23 -110 -37 -91 -33 -212 -63 -286 -71 -36 -5 -54 -11 -54 -20 0 -12 142
-14 863 -16 1217 -4 1134 -5 1149 10 10 9 -17 12 -132 12 l-145 1 30 24 c17
14 37 32 46 40 9 8 19 15 22 15 8 0 6 -2 156 142 61 59 111 111 111 116 0 4
21 28 46 52 25 25 55 61 67 80 12 19 27 41 34 48 7 7 13 16 13 20 0 4 15 24
34 45 38 44 216 354 216 377 0 5 11 34 25 65 14 30 28 68 31 85 4 16 9 30 13
30 4 0 7 8 8 18 1 9 13 53 27 97 14 44 28 93 31 110 3 16 16 91 29 165 65 359
58 639 -27 1100 -8 41 -31 129 -52 195 -21 66 -40 130 -42 143 -3 12 -9 22
-14 22 -5 0 -9 8 -9 17 0 19 -107 235 -140 283 -5 8 -31 49 -57 90 -26 41 -53
79 -60 83 -7 4 -13 14 -13 21 0 8 -7 16 -15 20 -8 3 -15 11 -15 17 0 7 -17 31
-37 54 -21 23 -76 85 -122 139 -66 76 -217 219 -336 318 -52 44 -261 181 -349
230 -148 81 -262 138 -279 138 -3 0 -30 11 -59 24 -98 44 -352 124 -508 159
-274 63 -450 81 -805 82 -329 0 -480 -12 -875 -71 -446 -66 -678 -87 -910 -81
-102 3 -207 10 -235 16 -27 6 -68 14 -91 17 -43 7 -86 27 -231 108 -653 365
-894 556 -1032 819 -22 41 -43 96 -46 121 -7 46 -33 66 -37 29z"/>
<path d="M13380 12496 l0 -204 28 -6 c531 -101 617 -130 730 -250 90 -95 129
-201 164 -441 21 -148 22 -174 25 -1623 l4 -1472 -533 0 c-665 1 -661 1 -625
-10 36 -11 265 -15 765 -14 l392 0 0 -78 0 -78 465 0 464 0 4 1713 c3 1289 7
1727 16 1772 36 180 115 282 255 329 92 31 218 47 386 47 287 1 459 -40 720
-169 81 -39 237 -161 322 -250 139 -146 240 -309 330 -535 127 -318 178 -619
185 -1097 5 -285 1 -348 -43 -710 -26 -206 -133 -538 -231 -715 -45 -81 -143
-233 -164 -255 -29 -30 -99 -118 -99 -124 0 -3 191 -6 424 -6 l424 0 58 67
c280 318 490 757 578 1206 55 279 61 350 61 712 0 352 -8 435 -60 697 -138
695 -501 1205 -1055 1483 -102 51 -338 128 -493 159 -269 56 -271 56 -1949 56
l-1548 0 0 -204z"/>
<path d="M18400 12495 l0 -204 33 -6 c17 -3 76 -12 130 -20 166 -26 369 -74
432 -104 33 -15 87 -52 119 -82 95 -87 156 -238 186 -464 24 -188 30 -530 30
-1877 l0 -1418 470 0 470 0 0 1313 c1 1705 9 1959 66 2179 40 155 133 288 241
345 81 43 337 104 493 118 41 3 87 8 103 11 l27 6 0 204 0 204 -1400 0 -1400
0 0 -205z"/>
<path d="M23100 12495 l0 -204 33 -5 c17 -2 74 -9 126 -16 153 -18 386 -76
477 -119 90 -43 206 -137 259 -210 45 -61 113 -234 136 -346 44 -211 65 -853
75 -2332 l7 -943 244 0 243 0 0 918 c0 1345 20 2194 55 2381 20 101 67 238
107 309 33 58 118 147 186 194 54 37 116 65 190 84 183 49 246 63 308 69 115
11 104 -12 104 221 l0 204 -1275 0 -1275 0 0 -205z"/>
<path d="M25870 12390 l0 -170 17180 0 17180 0 0 -4255 0 -4255 -17967 0
-17966 0 6 -97 c4 -54 7 -131 7 -170 l0 -73 17983 0 c14939 0 17992 3 18039
14 110 26 214 130 238 238 7 32 17 55 22 52 4 -3 8 1928 8 4290 0 2363 -4
4296 -8 4296 -5 0 -15 26 -22 57 -23 106 -117 198 -232 229 -45 12 -2501 14
-17260 14 l-17208 0 0 -170z"/>
<path d="M52841 10769 c-575 -64 -1059 -339 -1345 -764 -339 -503 -350 -1287
-27 -1850 136 -236 297 -382 563 -510 225 -108 276 -124 1196 -385 579 -163
689 -208 817 -335 71 -70 133 -186 166 -310 25 -96 30 -271 10 -355 -33 -134
-124 -279 -232 -369 -201 -169 -447 -241 -817 -241 -566 0 -947 169 -1148 509
-47 80 -94 200 -115 294 -11 51 -15 58 -33 53 -12 -2 -221 -51 -466 -107 -245
-56 -449 -105 -453 -109 -13 -11 88 -302 147 -423 242 -498 679 -826 1316
-988 238 -60 362 -73 715 -74 344 0 424 7 660 60 408 92 752 278 1015 551 243
252 385 549 434 905 68 491 -24 936 -268 1303 -167 250 -465 447 -898 591 -73
24 -365 107 -648 184 -283 77 -553 153 -600 169 -359 123 -559 318 -592 578
-28 226 72 462 254 599 183 137 402 193 713 182 235 -9 382 -47 538 -141 162
-97 281 -243 358 -439 22 -56 32 -71 46 -69 23 4 827 219 871 233 17 6 32 17
32 24 0 27 -61 200 -100 283 -227 485 -757 832 -1430 938 -124 19 -550 28
-679 13z"/>
<path d="M21880 9365 l0 -1325 -3340 0 -3340 0 0 28 c-1 43 -11 106 -21 122
-5 9 -9 -16 -9 -67 l0 -83 -1877 -2 c-1033 -2 -1887 -7 -1898 -11 -16 -7 -17
-7 -5 2 11 7 -474 11 -1679 11 l-1695 0 -23 22 c-13 12 -23 25 -23 30 0 4 32
8 70 8 39 0 70 3 70 6 0 3 -24 31 -52 62 -29 31 -87 92 -128 137 -41 44 -133
140 -205 212 -71 73 -132 138 -133 143 -8 22 -250 234 -293 256 -26 12 -90 51
-144 84 -53 34 -113 67 -133 75 -21 7 -107 44 -192 83 -85 38 -213 89 -285
112 -71 24 -170 60 -218 81 -48 22 -94 39 -100 39 -40 0 -386 196 -506 286
-34 26 -90 76 -124 111 -76 79 -265 208 -369 251 -131 55 -185 63 -403 60
l-194 -3 107 -121 c59 -66 123 -140 143 -165 96 -120 208 -305 286 -470 67
-142 112 -205 234 -329 185 -187 317 -285 564 -420 33 -18 85 -51 115 -74 83
-62 267 -244 340 -335 l65 -81 722 0 722 0 21 -27 22 -28 -1849 -5 -1848 -5 0
-115 0 -115 1847 -3 c1017 -1 1848 -5 1848 -10 0 -4 -9 -13 -20 -20 -11 -7
-20 -19 -20 -27 0 -13 -88 -15 -719 -15 l-719 0 -48 -57 c-171 -202 -385 -393
-509 -453 -27 -14 -113 -66 -191 -116 -118 -76 -167 -117 -292 -238 -169 -165
-208 -219 -294 -396 -120 -251 -254 -442 -476 -680 -28 -31 -52 -60 -52 -65 0
-4 91 -5 203 -2 284 7 335 22 557 156 99 59 107 66 232 183 136 128 369 275
557 353 58 24 142 59 186 78 44 18 116 43 161 55 44 12 134 46 200 75 65 30
155 69 199 86 77 30 239 119 395 217 75 48 340 304 541 524 48 52 123 133 167
179 45 47 79 88 76 93 -3 4 -39 8 -81 8 l-75 0 29 34 28 35 1496 0 1495 1 42
36 c49 41 57 36 11 -7 l-31 -29 2071 0 2070 0 3 -102 c2 -60 7 -103 13 -103 6
0 11 43 13 103 l3 102 579 0 c527 0 579 -1 573 -16 -4 -12 -1 -15 13 -12 10 2
18 10 17 16 -2 9 627 12 2752 12 l2755 0 0 -1460 0 -1460 400 0 400 0 0 1460
0 1460 310 0 309 0 10 -37 c6 -21 164 -560 350 -1198 l340 -1160 -66 -194
c-74 -221 -102 -289 -169 -416 -260 -495 -631 -770 -1164 -860 -146 -25 -439
-31 -586 -11 -362 48 -663 192 -914 438 -119 115 -144 145 -240 283 -79 112
-223 379 -255 470 -10 28 -35 93 -55 145 -88 220 -185 646 -229 1000 -32 259
-40 405 -47 858 l-7 422 -470 0 -470 0 6 -492 c8 -604 25 -879 83 -1292 95
-680 281 -1229 559 -1644 109 -164 252 -338 377 -458 300 -291 781 -507 1258
-566 366 -45 838 -21 1111 56 199 56 366 119 479 181 58 32 124 68 146 81 112
60 349 269 478 419 133 155 316 447 404 645 53 119 137 321 152 367 l13 42
136 3 135 3 417 1433 c229 788 420 1444 423 1457 l6 25 310 0 310 0 0 -1460 0
-1460 495 0 495 0 0 1460 0 1460 255 0 255 0 0 -537 c0 -296 5 -603 10 -683
50 -698 248 -1140 648 -1440 218 -163 468 -263 790 -316 130 -21 546 -30 683
-15 437 49 794 208 1086 485 295 279 410 545 480 1109 15 118 17 359 20 2210
l4 2077 -386 0 -385 0 0 -1927 c0 -2169 0 -2167 -76 -2430 -45 -157 -95 -246
-198 -349 -81 -80 -104 -97 -206 -147 -326 -161 -737 -150 -1044 30 -231 135
-335 298 -396 621 -33 176 -40 323 -40 820 l0 472 178 0 177 0 63 -96 c68
-107 72 -125 46 -215 -40 -134 -219 -417 -381 -602 -36 -41 -42 -62 -15 -54 9
3 58 17 108 31 90 26 228 78 310 117 22 10 44 19 49 19 10 0 258 122 265 130
8 9 109 57 170 81 87 33 397 195 420 219 3 3 37 29 75 58 85 65 182 159 312
300 54 59 101 109 106 110 22 10 -4 51 -101 158 -128 140 -193 201 -323 305
-112 90 -321 207 -482 270 -27 11 -113 52 -190 92 -78 40 -158 79 -177 88 -19
8 -78 34 -130 58 -52 23 -104 47 -115 51 -11 5 -54 18 -95 30 -41 12 -84 25
-95 30 -40 18 -125 38 -125 29 0 -4 19 -32 43 -61 101 -126 150 -192 220 -299
88 -134 129 -214 152 -292 19 -64 23 -53 -68 -194 l-39 -63 -179 0 -179 0 0
1305 0 1305 -495 0 -495 0 0 -1325 0 -1325 -255 0 -255 0 0 1325 0 1325 -762
-2 -761 -3 -373 -1270 c-206 -698 -381 -1294 -389 -1323 l-16 -52 -316 2 -316
3 -395 1323 -396 1322 -758 0 -758 0 0 -1325z m4247 -1322 c-2 -2 -125 -2
-274 -1 l-269 3 270 931 271 931 3 -930 c1 -512 1 -932 -1 -934z m-3177 947
c143 -492 265 -907 270 -922 l9 -28 -275 0 -274 0 1 933 c0 512 2 928 4 922 2
-5 122 -413 265 -905z m1779 -1257 c-10 -38 -27 -95 -37 -128 l-18 -60 -169 0
-169 0 -18 60 c-10 33 -27 90 -37 128 l-19 67 243 0 243 0 -19 -67z"/>
<path d="M31830 7785 l0 -2905 1645 0 1645 0 0 480 0 480 -1135 0 -1135 0 0
2425 0 2425 -510 0 -510 0 0 -2905z"/>
<path d="M34180 10240 l0 -450 705 0 705 0 0 -2455 0 -2455 520 0 520 0 0
2455 0 2455 695 0 695 0 0 -2455 0 -2455 485 0 485 0 2 2877 3 2876 815 -2874
815 -2874 492 -3 492 -2 19 62 c10 35 385 1337 833 2894 l814 2831 3 -2893 2
-2894 1740 0 1740 0 0 460 0 460 -1255 0 -1255 0 0 805 0 805 995 0 995 0 0
425 0 425 -995 0 -995 0 0 780 0 780 1235 0 1235 0 0 435 0 435 -2127 -2
-2127 -3 -620 -2207 c-436 -1549 -623 -2201 -628 -2185 -11 32 -1208 4386
-1208 4392 0 3 -1312 5 -2915 5 l-2915 0 0 -450z"/>
<path d="M46970 7785 l0 -2905 485 0 485 0 0 1195 0 1195 672 -2 673 -3 414
-1192 414 -1193 514 0 c282 0 513 2 513 4 0 2 -206 570 -459 1262 -252 693
-461 1268 -465 1280 -6 18 6 27 94 72 454 232 727 595 821 1092 30 160 38 524
15 690 -43 307 -132 539 -295 770 -258 365 -645 565 -1210 625 -111 12 -367
15 -1403 15 l-1268 0 0 -2905z m2417 2054 c244 -33 406 -111 552 -265 64 -67
91 -106 126 -177 70 -146 80 -195 80 -397 0 -210 -13 -276 -87 -429 -43 -90
-61 -116 -136 -191 -132 -132 -270 -200 -497 -242 -102 -18 -162 -20 -797 -25
l-688 -5 0 871 0 871 684 0 c428 0 714 -4 763 -11z"/>
<path d="M55470 7785 l0 -2905 1740 0 1740 0 0 460 0 460 -1255 0 -1255 0 0
805 0 805 995 0 995 0 0 425 0 425 -995 0 -995 0 0 780 0 780 1235 0 1235 0 0
435 0 435 -1720 0 -1720 0 0 -2905z"/>
<path d="M3960 10078 c0 -7 23 -26 51 -43 80 -47 118 -84 149 -145 35 -69 48
-133 66 -325 44 -478 91 -674 216 -893 52 -93 201 -281 279 -352 45 -41 115
-108 156 -147 l74 -73 605 0 c332 0 604 4 604 8 0 13 -170 172 -201 187 -15 8
-34 22 -43 30 -16 17 -106 72 -166 102 -19 10 -37 20 -40 23 -3 3 -30 18 -60
34 -30 16 -64 37 -75 46 -21 19 -76 56 -157 105 -73 45 -368 322 -368 345 0 5
-4 10 -9 10 -11 0 -121 148 -121 162 0 5 -10 24 -23 41 -13 18 -32 49 -42 70
-11 20 -23 37 -27 37 -5 0 -8 9 -8 20 0 10 -12 34 -27 52 -16 18 -39 56 -53
83 -14 28 -32 59 -41 70 -9 11 -42 58 -74 105 -32 47 -66 91 -77 98 -10 7 -18
17 -18 22 0 9 -38 56 -87 107 -18 19 -33 42 -33 52 0 10 -7 24 -15 31 -8 7
-15 18 -15 25 0 7 -25 28 -54 47 -48 31 -66 37 -138 43 -46 4 -108 13 -139 21
-70 17 -89 18 -89 2z"/>
<path d="M13010 8310 c18 -12 974 -10 993 2 7 4 -217 8 -498 8 -345 0 -505 -4
-495 -10z"/>
<path d="M12254 8113 c-652 -3 -753 -5 -764 -18 -11 -13 93 -15 915 -15 877 0
926 1 923 18 -4 20 74 19 -1074 15z"/>
<path d="M11215 7739 c-4 -6 -5 -12 -3 -15 3 -2 480 -5 1062 -6 935 -3 1056
-1 1054 12 -3 13 -129 15 -1055 18 -740 1 -1054 -1 -1058 -9z"/>
<path d="M4940 7716 c0 -7 -12 -21 -26 -31 -15 -9 -50 -40 -79 -69 -29 -28
-91 -89 -139 -135 -48 -46 -95 -96 -104 -110 -9 -14 -45 -64 -80 -111 -35 -47
-70 -101 -78 -120 -8 -19 -22 -42 -31 -52 -9 -10 -13 -18 -9 -18 4 0 -4 -19
-18 -42 -13 -24 -34 -79 -45 -123 -11 -44 -27 -98 -34 -121 -8 -22 -20 -83
-27 -134 -6 -52 -16 -126 -21 -165 -6 -38 -16 -140 -24 -225 -16 -187 -29
-248 -66 -322 -35 -69 -81 -115 -148 -148 -81 -40 -62 -62 34 -40 22 5 70 11
106 14 85 6 139 16 139 26 0 5 20 20 45 34 25 15 45 34 45 42 0 8 6 17 14 20
8 3 16 19 20 36 3 16 18 42 33 57 37 35 112 124 143 170 14 20 31 40 38 44 6
4 12 14 12 21 0 7 9 21 20 31 11 10 20 24 20 30 0 7 7 18 15 25 16 13 65 97
65 112 0 5 11 21 26 36 14 15 28 39 31 55 3 15 10 27 15 27 5 0 18 19 28 43
11 24 28 54 38 68 10 13 22 31 26 39 23 50 64 106 126 171 173 183 271 274
358 331 32 20 85 57 120 83 35 25 89 59 120 76 201 107 316 185 411 274 40 39
79 74 87 78 8 4 14 15 14 22 0 13 -84 15 -610 15 -513 0 -610 -2 -610 -14z"/>
<path d="M16357 7663 c-4 -3 -7 -33 -7 -65 l0 -58 -1010 0 -1009 0 -4 -1527
c-3 -1499 -4 -1531 -25 -1668 -46 -307 -116 -424 -307 -515 -44 -21 -118 -48
-165 -59 -70 -17 -415 -80 -443 -81 -4 0 -6 -96 -5 -212 l3 -213 1415 0 1415
0 3 213 c1 116 0 212 -3 212 -29 0 -388 64 -450 80 -227 60 -364 183 -427 383
-31 101 -56 270 -67 461 -7 109 -11 677 -11 1469 l0 1290 303 -6 c431 -10 530
-30 666 -137 28 -23 72 -69 97 -103 47 -63 181 -328 274 -542 29 -66 66 -149
82 -185 17 -36 99 -220 183 -410 317 -712 405 -902 599 -1290 289 -576 432
-802 651 -1029 162 -168 349 -290 585 -384 133 -52 547 -118 838 -134 92 -5
112 -4 112 8 0 8 9 97 20 199 11 102 20 192 20 200 0 9 -27 25 -73 42 -160 60
-359 216 -521 407 -185 220 -406 580 -736 1201 -91 172 -410 804 -410 814 0 2
-34 75 -75 162 -42 86 -97 202 -122 258 -25 56 -49 106 -53 111 -5 6 -39 80
-78 165 -38 85 -93 204 -121 264 -29 59 -61 130 -71 157 -11 27 -36 81 -57
121 -20 40 -55 118 -78 173 l-41 100 -437 3 -437 2 0 65 c0 60 -6 75 -23 58z"/>
<path d="M8533 7563 c-10 -4 -13 -379 -13 -1827 l0 -1823 -46 -7 c-26 -3 -79
-6 -119 -6 -201 0 -531 -100 -685 -208 -36 -26 -66 -50 -68 -54 -2 -4 -8 -8
-14 -8 -14 0 -192 -185 -209 -218 -8 -14 -32 -56 -53 -92 -54 -89 -80 -158
-121 -312 -19 -73 -43 -167 -55 -208 -42 -155 -59 -324 -74 -730 -1 -25 4 -35
16 -38 13 -2 16 4 16 27 -1 43 69 183 141 278 111 148 296 298 593 480 235
143 308 177 416 190 80 9 662 11 668 2 3 -5 37 -8 77 -8 69 1 177 -11 297 -31
87 -15 282 -39 320 -39 19 0 94 -7 165 -15 507 -59 965 -59 1330 -1 50 8 111
17 136 19 40 4 234 52 250 61 3 2 21 7 40 10 19 3 66 17 104 31 39 14 90 31
115 38 93 27 407 181 520 255 95 63 118 77 140 87 8 4 40 28 70 54 30 26 75
61 100 79 52 37 310 288 310 301 0 5 9 15 20 23 20 14 100 110 100 121 0 6 23
36 48 61 6 8 12 18 12 24 0 6 5 11 10 11 6 0 10 6 10 13 0 8 8 21 18 30 9 9
26 33 37 54 11 21 22 40 25 43 10 10 50 95 50 107 0 6 4 13 8 15 18 7 101 204
137 323 15 50 33 110 40 135 8 25 17 61 20 80 3 19 17 89 30 155 39 195 44
255 45 555 0 243 -3 303 -20 405 -19 111 -46 239 -58 275 -3 8 -5 18 -4 22 2
9 -45 147 -58 170 -6 10 -10 24 -10 31 0 20 -106 256 -120 267 -3 3 -12 21
-20 40 -8 19 -17 37 -20 40 -4 3 -24 35 -46 73 -21 37 -42 67 -46 67 -4 0 -8
6 -8 13 0 8 -11 24 -25 37 -13 12 -22 27 -19 31 3 5 0 9 -5 9 -6 0 -11 6 -11
14 0 8 -7 17 -16 20 -9 4 -14 9 -12 12 6 6 -48 70 -104 122 -21 19 -38 41 -38
48 0 7 -6 15 -12 17 -10 4 -9 8 2 16 12 9 10 11 -12 11 -17 0 -33 8 -40 20 -7
11 -18 20 -23 20 -6 0 -35 25 -65 56 -30 30 -76 71 -101 89 l-45 34 -907 3
c-828 3 -907 2 -907 -13 0 -13 17 -17 103 -22 56 -3 131 -12 168 -21 36 -9 74
-17 85 -19 10 -2 26 -6 34 -9 8 -3 42 -13 75 -23 33 -9 76 -24 95 -32 59 -24
215 -98 220 -103 3 -3 10 -6 17 -7 14 -3 147 -95 151 -105 2 -5 18 -16 35 -24
35 -18 38 -20 183 -167 115 -117 189 -197 181 -197 -3 0 5 -12 18 -26 14 -15
25 -31 25 -36 0 -8 9 -21 38 -53 7 -8 26 -45 41 -82 16 -38 38 -89 50 -115 56
-125 63 -144 66 -167 2 -15 13 -53 24 -86 18 -55 47 -212 57 -310 15 -138 6
-646 -11 -705 -3 -8 -11 -53 -20 -100 -8 -47 -22 -106 -31 -130 -9 -25 -18
-55 -19 -68 -2 -12 -13 -43 -25 -70 -12 -26 -25 -56 -30 -67 -73 -179 -181
-341 -301 -451 -29 -27 -63 -58 -74 -69 -35 -33 -93 -75 -104 -75 -6 0 -11 -4
-11 -8 0 -5 -22 -21 -50 -36 -27 -15 -55 -32 -63 -39 -28 -26 -281 -142 -377
-173 -202 -65 -454 -120 -587 -128 -43 -3 -130 -10 -193 -15 -147 -14 -441
-14 -595 0 -66 5 -151 12 -190 14 -38 2 -123 9 -188 16 -106 11 -118 14 -122
33 -3 12 -4 848 -3 1859 l3 1837 -445 -1 c-245 0 -451 -3 -457 -6z"/>
</g>
</svg>
